<svg width="67px" height="50px" viewBox="77 55 67 50">
    <path d="M137.776314,57.4848355 C137.604143,56.7979689 137.130694,56.2121207 136.355942,55.7272678 C135.581198,55.2424226 134.720377,55 133.773462,55 L86.2558378,55 C85.3089313,55 84.4481103,55.2424226 83.6733623,55.7272678 C82.8986143,56.2121207 82.4251644,56.7979689 82.2529986,57.4848355 L81.5428167,61.1817839 L138.486491,61.1817839 L137.776314,57.4848355 Z M141.133537,64.2726681 L78.8957751,64.2726681 C78.3362348,64.2726681 77.8627849,64.4746817 77.4754113,64.8787245 C77.0880375,65.2827674 76.9373943,65.7474042 77.0234774,66.2726583 L80.0578909,102.454226 C80.1009328,103.060286 80.3699379,103.575429 80.8649162,103.99967 C81.3598936,104.423912 81.9301853,104.63603 82.5758085,104.63603 L137.4535,104.63603 C138.09912,104.63603 138.669414,104.423912 139.16439,103.99967 C139.659367,103.575429 139.928375,103.060286 139.971413,102.454226 L143.005831,66.2726583 C143.091916,65.7474042 142.941273,65.2827674 142.553893,64.8787245 C142.166521,64.4746817 141.693072,64.2726681 141.133537,64.2726681 Z M116.406291,87.6058465 C116.234128,88.0098816 116.061958,88.2220033 115.889795,88.2422039 C115.717633,88.2624045 115.674586,88.0502828 115.760671,87.6058465 C116.018919,86.5149371 115.965121,85.0503167 115.599268,83.2119312 C115.233416,81.3735534 114.146634,80.3129681 112.338882,80.0301366 L112.338882,90.272495 C112.338882,91.3229955 112.048363,92.2724698 111.467301,93.1209566 C110.886239,93.9694434 109.928581,94.5956928 108.594294,94.9997278 C107.26,95.4037707 105.958017,95.4239712 104.688288,95.0603374 C103.418567,94.6967035 102.611545,94.0704464 102.267211,93.1815661 C101.922886,92.2926781 102.084289,91.373497 102.751428,90.4240072 C103.418576,89.4745097 104.419272,88.7775505 105.753567,88.3331143 C106.485272,88.0906839 107.238489,87.9391717 108.013232,87.87857 C108.787976,87.8179605 109.455115,87.9088709 110.01465,88.1512935 L110.01465,73.6059379 L112.338882,73.6059379 C112.338882,76.1513906 113.673152,77.8685338 116.341733,78.7574141 C119.010306,79.6463021 119.031826,82.5957511 116.406291,87.6058465 Z" id="Page-1" stroke="none" fill="#fff" fill-rule="evenodd"></path>
</svg>